# xmcd
#
# Track frame offsets: 
#        150
#        94765
#        149324
#        229749
#
# Disc length: 4651 seconds
#
# Revision: 0
# Processed by: cddbd v1.5.2PL0 Copyright (c) Steve Scherf et al.
# Submitted via: ExactAudioCopyFreeDBPlugin 1.0
#
DISCID=2d122904
DTITLE=リニティセブン / ドラマCD トリニティセブン 7人の魔書使い
DYEAR=2012
DGENRE=Anime
TTITLE0=第1話 - 魔王候補（アドミニスター）と一つの指輪（ア・リング）
TTITLE1=第2話 - 夜の課外授業（ナイトレッスン）と空間閉鎖（プリズンロック）
TTITLE2=第3話 - ドラマCD版特別エピソード 7人の魔書使い（トリニティセブン）と魔王候補（アドミニスター）
TTITLE3=フリートーク
EXTD=
EXTT0=
EXTT1=
EXTT2=
EXTT3=
PLAYORDER=
